<svg id="Capa_1" data-name="Capa 1" xmlns="http://www.w3.org/2000/svg" viewBox="0 0 3858.33 693.72"><defs><style>.cls-1{fill:#f9c438;}.cls-2{fill:#eb4b3f;}.cls-3{fill:#945aaf;}.cls-4{fill:#31b2a0;}.cls-5{font-size:380.5px;fill:#fff;font-family:Garet-Bold, Garet;font-weight:700;letter-spacing:0.15em;}.cls-6{letter-spacing:0.11em;}.cls-7{letter-spacing:0.12em;}.cls-8{letter-spacing:0.15em;}.cls-9{letter-spacing:0.14em;}.cls-10{letter-spacing:0.13em;}</style></defs><path class="cls-1" d="M168.52,264a122.86,122.86,0,1,0,0,245.71c67.41,0,122.85-54.81,122.85-122.85S235.93,264,168.52,264Zm0,226.81a104,104,0,1,1,104-104A104.05,104.05,0,0,1,168.52,490.79Z" transform="translate(-45.66 -41.72)"/><path class="cls-1" d="M228,451.62H127.34V320.69h51q16.35,0,26.71,5.83A40.7,40.7,0,0,1,220.84,342a42.55,42.55,0,0,1,5.64,21.63,41.5,41.5,0,0,1-9,26.24,42.47,42.47,0,0,1-22.76,15.34ZM134.3,332.17V399.7h48.35Zm0,112.49h80.52l-27.46-38.18-5.84.18H134.3Zm4.89-117,51.17,71.49a36.05,36.05,0,0,0,20.89-12.6,35,35,0,0,0,8.27-23,35.94,35.94,0,0,0-5.07-18.81,33.46,33.46,0,0,0-14.3-13q-8.28-4.12-21.64-4.14Z" transform="translate(-45.66 -41.72)"/><path class="cls-2" d="M395,41.72a122.86,122.86,0,0,0,0,245.71c67.42,0,122.86-54.81,122.86-122.86S462.42,41.72,395,41.72Zm0,226.81a104,104,0,1,1,104-104A104.06,104.06,0,0,1,395,268.53Z" transform="translate(-45.66 -41.72)"/><path class="cls-2" d="M456.7,216.11H333.29L395,82.35Zm-112.5-7H445.78L395,98.91Z" transform="translate(-45.66 -41.72)"/><path class="cls-3" d="M399.34,489.73a122.86,122.86,0,0,0,0,245.71c67.41,0,122.85-54.81,122.85-122.85S466.75,489.73,399.34,489.73Zm0,226.81a104,104,0,1,1,104-103.95A104.05,104.05,0,0,1,399.34,716.54Z" transform="translate(-45.66 -41.72)"/><path class="cls-3" d="M401.22,601l54.56,76.38H350.43V546.44H455.78Zm-4.89,4.89-38.94,39v25.58h85Z" transform="translate(-45.66 -41.72)"/><path class="cls-4" d="M633.06,264a122.86,122.86,0,0,0,0,245.71c67.42,0,122.86-54.81,122.86-122.85S700.48,264,633.06,264Zm0,226.81a104,104,0,1,1,104-104A104.05,104.05,0,0,1,633.06,490.79Z" transform="translate(-45.66 -41.72)"/><path class="cls-4" d="M608.7,331.75a47.43,47.43,0,0,0-17.22,17.12,45.6,45.6,0,0,0-6.39,23.61v24.83q0,13.37,3.76,22a47.07,47.07,0,0,0,16,19.94,46,46,0,0,0,24.08,8.66V386.78H686.3v12.41a60.14,60.14,0,0,1-3.58,21.45,51.47,51.47,0,0,1-19.56,25,53.66,53.66,0,0,1-31,9.41,52.73,52.73,0,0,1-29.82-8.94,52,52,0,0,1-19.65-23.8q-4.53-10.53-4.53-25V372.48a52.79,52.79,0,0,1,7.25-27.09A53.8,53.8,0,0,1,605,325.73a52.88,52.88,0,0,1,27.09-7.24,60.1,60.1,0,0,1,22.38,4,47,47,0,0,1,17.31,11.76,56.12,56.12,0,0,1,9.5,14.3,37.53,37.53,0,0,1,3.67,16h-6.77a33.17,33.17,0,0,0-3.48-13.73,50.05,50.05,0,0,0-8.37-12.23q-12.6-13.17-34.24-13.17A45.71,45.71,0,0,0,608.7,331.75Zm70.64,61.8H635.69v54.37a47.3,47.3,0,0,0,24.37-8.56A44.53,44.53,0,0,0,676,419.13a55.33,55.33,0,0,0,3.39-19.94Z" transform="translate(-45.66 -41.72)"/><text class="cls-5" transform="translate(1196.72 452.07)">AR<tspan class="cls-6" x="659.79" y="0">K</tspan><tspan class="cls-7" x="979.79" y="0">G</tspan><tspan class="cls-8" x="1334.42" y="0">AM</tspan><tspan class="cls-9" x="2081.73" y="0">E</tspan><tspan class="cls-10" x="2366.73" y="0">S</tspan></text></svg>